<svg width="582" height="419" viewBox="0 0 582 419" fill="none" xmlns="http://www.w3.org/2000/svg">
<path d="M58.2634 63.5602L86.7955 179.05L74.0785 181.836L45.7963 66.271L2.64834 75.6026L0 62.8481L99.4875 41.6115L102.336 54.0287L58.2634 63.5602Z" fill="#E9AA09"/>
<path d="M86.7331 77.5139L99.4501 75.4652L101.949 92.1298L131.168 73.479L138.113 84.6095L104.21 106.071L110.83 146.945L97.9511 148.869L86.7331 77.5139Z" fill="#E9AA09"/>
<path d="M142.411 138.95L137.201 131.68L143.785 82.9606L149.494 77.4515L189.631 74.1661L195.877 77.5889L207.52 100.599L202.998 109.781L160.449 118.676L157.713 106.183L192.104 98.7881L186.345 87.4453L155.652 89.7563L150.718 127.42L197.863 136.165L195.365 148.769L142.411 138.95Z" fill="#E9AA09"/>
<path d="M282.573 119.625L280.074 116.752L223.485 125.796L216.114 117.988L224.059 86.6082L230.23 81.6113H273.578L270.705 60.2372L221.374 72.2922L218.226 59.8L274.54 45.9587L282.485 51.4428L290.155 108.307L299.699 111.18L296.277 123.51L282.573 119.625ZM276.539 104.147L275.29 94.6906H235.315L231.105 111.405L276.539 104.147Z" fill="#E9AA09"/>
<path d="M427.656 155.54L384.359 162.66L376.863 155.952L380.149 100.599L393.028 101.274L390.292 148.557L424.683 143.073L427.557 100.462L440.573 101.549L437.563 146.358L449.205 153.354L442.497 164.309L427.656 155.54Z" fill="#E9AA09"/>
<path d="M454.452 79.1754L467.332 78.7631L467.744 95.615L498.974 80.8118L504.446 92.7418L468.144 109.731L469.518 151.155L456.501 151.43L454.452 79.1754Z" fill="#E9AA09"/>
<path d="M489.18 171.418L483.971 164.16L490.554 115.44L496.313 109.931L536.451 106.646L542.759 110.069L554.402 133.092L549.88 142.273L507.269 151.155L504.533 138.663L538.924 131.255L533.165 119.925L502.472 122.248L497.475 159.937L544.658 168.644L542.16 181.249L489.18 171.418Z" fill="#E9AA09"/>
<path d="M216.564 230.28L216.839 198.213L229.718 198.488L228.894 292.629L216.014 292.491L216.427 243.297L158.6 248.294L156.414 292.829L143.535 292.142L148.195 198.001L161.074 198.688L159.15 235.415L216.564 230.28Z" fill="#E9AA09"/>
<path d="M290.93 284.821L247.632 291.942L240.137 285.233L243.385 229.856L256.264 230.53L253.591 277.863L287.919 272.329L290.792 229.718L303.809 230.805L300.799 275.614L312.441 282.61L305.733 293.566L290.93 284.821Z" fill="#E9AA09"/>
<path d="M362.697 232.242L333.541 236.901L327.494 277.326L314.602 275.415L321.461 230.331L326.807 224.846L367.907 218.413L375.402 224.434L378 278.288L364.983 278.975L362.697 232.242Z" fill="#E9AA09"/>
<path d="M405.708 251.255L430.267 264.559L424.259 275.864L394.752 260.062L391.717 252.342L403.047 217.101L376.276 213.129L378.025 200.187L407.094 204.534L411.554 190.793L423.859 194.79L420.111 206.595L450.692 211.117L448.731 223.735L416.089 219.013L405.708 251.255Z" fill="#E9AA09"/>
<path d="M18.7382 370.068L49.8687 253.891L62.4608 257.151L31.2304 373.328L18.7382 370.068Z" fill="#E9AA09"/>
<path d="M96.8392 323.097L67.3452 325.083L63.4102 376.164L50.7556 373.091L55.9399 317.438L61.7612 312.441L103.285 309.806L110.231 316.489L107.932 370.342L94.9404 369.843L96.8392 323.097Z" fill="#E9AA09"/>
<path d="M113.866 388.506L122.173 329.056L129.806 323.897L169.781 332.042L168.894 301.286L181.923 301.011L183.635 373.191L177.614 379.762L120.537 396.001L113.866 388.506ZM127.97 382.66L170.605 367.457L170.043 345.221L133.741 337.725L127.97 382.66Z" fill="#E9AA09"/>
<path d="M194.091 399.749L188.057 392.766L191.355 345.771L197.514 339.874L243.01 337.963L249.718 344.209L253.591 404.746L246.745 411.329L194.091 399.749ZM240.012 395.927L237.114 351.03L203.822 352.404L201.486 387.257L240.012 395.927Z" fill="#E9AA09"/>
<path d="M307.969 333.028L278.788 337.688L270.255 384.359L257.338 382.435L266.683 331.117L272.029 325.633L313.141 319.2L320.636 325.221L318.238 399.062L305.221 399.749L307.969 333.028Z" fill="#E9AA09"/>
<path d="M337.763 397.613L332.554 390.355L339.137 341.573L344.896 336.089L385.033 332.803L391.279 336.226L402.922 359.249L398.5 368.431L355.889 377.338L353.153 364.846L387.544 357.438L381.785 346.07L351.03 348.431L346.095 386.107L414.477 406.095L411.979 418.7L337.763 397.613Z" fill="#E9AA09"/>
<path d="M405.995 383.509L407.994 370.68L442.735 375.989L452.216 358.025L411.205 353.778L405.471 346.857L406.545 320.349L412.366 314.24L456.089 309.243L457.338 322.085L419.374 326.345L418.687 341.461L462.872 346.145L468.019 355.552L451.954 386.008L445.358 389.268L405.995 383.509Z" fill="#E9AA09"/>
<path d="M474.702 308.869L486.669 303.972L492.591 318.713L480.623 323.609L474.702 308.869ZM480.611 386.408L480.761 331.592H493.728L493.59 386.408H480.611Z" fill="#E9AA09"/>
<path d="M566.207 331.042L563.246 328.694L509.418 348.406L500.673 342.16L502.472 309.805L507.581 303.797L550.055 295.514L543.147 275.09L497.038 296.326L491.554 284.684L544.196 260.336L553.04 264.197L571.466 318.55L581.46 319.412L580.461 332.166L566.207 331.042ZM557.338 317.001L554.315 307.957L515.039 315.602L514.065 332.816L557.338 317.001Z" fill="#E9AA09"/>
<path d="M318.812 195.652C314.605 195.671 310.427 194.948 306.47 193.516L310.767 181.786C313.349 182.71 316.071 183.175 318.812 183.16C319.699 183.16 320.611 183.16 321.536 183.035L322.785 195.465C321.411 195.59 320.099 195.652 318.812 195.652ZM337.925 191.18L332.641 179.887C336.167 178.273 339.408 176.096 342.235 173.441L350.98 182.336C347.142 185.966 342.731 188.937 337.925 191.13V191.18ZM193.941 188.095L184.459 179.962C187.642 176.272 191.068 172.8 194.715 169.569L203.01 178.9C199.79 181.765 196.761 184.836 193.941 188.095ZM293.104 186.133C289.843 183.897 286.857 181.611 283.997 179.388L281.848 177.739L289.431 167.745L291.617 169.431C294.365 171.542 297.201 173.729 300.174 175.777L293.104 186.133ZM213.154 171.143L206.283 160.724C210.426 157.965 214.817 155.598 219.4 153.654L224.209 165.184C220.361 166.794 216.668 168.756 213.179 171.043L213.154 171.143ZM271.155 170.381C267.57 168.189 263.779 166.352 259.837 164.897L264.059 153.142C268.749 154.812 273.263 156.937 277.538 159.488L271.155 170.381ZM359.462 169.394L348.469 163.473C350.388 160.061 351.726 156.355 352.429 152.504L364.746 154.603C363.807 159.754 362.03 164.717 359.487 169.294L359.462 169.394ZM247.72 161.899C243.802 161.311 239.819 161.311 235.902 161.899L234.066 149.544C239.22 148.763 244.464 148.763 249.618 149.544L247.72 161.899ZM352.316 140.999C351.573 136.961 350.37 133.021 348.731 129.257L360.236 124.385C362.25 129.03 363.721 133.893 364.621 138.875L352.316 140.999ZM342.585 119.762C339.526 116.875 336.22 114.263 332.704 111.955L339.824 101.686C343.964 104.416 347.848 107.514 351.429 110.943L342.585 119.762ZM321.536 104.222L320.461 103.523C316.461 101.137 312.78 98.2533 309.506 94.9406L318.663 86.4459C321.257 88.9882 324.157 91.1994 327.295 93.0293L328.431 93.7663L321.536 104.222ZM301.948 79.3753C301.746 77.9518 301.646 76.5158 301.648 75.078C301.698 70.9927 302.377 66.9395 303.659 63.0606L315.564 66.8082C314.671 69.4632 314.191 72.2397 314.14 75.0405C314.143 75.8763 314.201 76.711 314.315 77.539L301.948 79.3753ZM370.105 58.8257C370.105 58.8257 367.882 56.3273 360.749 52.1799L366.995 41.3742C376.076 46.6584 379.125 50.1187 379.849 51.0556L369.98 58.7133L370.105 58.8257ZM320.611 55.9275L310.143 49.1068C313.199 44.49 317.244 40.6111 321.985 37.7514L328.469 48.4322C325.326 50.3165 322.642 52.8768 320.611 55.9275ZM349.431 46.4335C346.75 45.4079 343.906 44.8747 341.036 44.8595C340.293 44.8589 339.551 44.8965 338.812 44.9719L337.563 32.4798C338.7 32.3798 339.862 32.3174 341.011 32.3174C345.405 32.3265 349.761 33.135 353.865 34.7034L349.431 46.4335Z" fill="#E9AA09"/>
<path d="M395.352 59.1504L399.674 36.2273L449.718 31.2304L397.613 0L386.857 57.0392C383.223 57.218 379.774 58.6977 377.139 61.2082C374.505 63.7187 372.862 67.0926 372.508 70.7143C372.155 74.336 373.116 77.9639 375.215 80.9361C377.315 83.9083 380.413 86.0264 383.945 86.9041C387.476 87.7818 391.205 87.3604 394.452 85.7169C397.698 84.0734 400.246 81.3173 401.629 77.9517C403.013 74.586 403.14 70.8351 401.987 67.3835C400.835 63.932 398.48 61.0098 395.352 59.1504ZM403.884 13.9537L422.622 25.1967L401.386 27.3204L403.884 13.9537ZM387.644 78.6007C386.371 78.6031 385.125 78.2276 384.065 77.5216C383.005 76.8157 382.179 75.811 381.69 74.635C381.202 73.4589 381.073 72.1643 381.321 70.9152C381.569 69.666 382.182 68.5186 383.083 67.6181C383.983 66.7176 385.13 66.1046 386.38 65.8568C387.629 65.6089 388.923 65.7374 390.099 66.2259C391.275 66.7143 392.28 67.5409 392.986 68.6008C393.692 69.6606 394.068 70.9062 394.065 72.1797C394.064 73.0256 393.895 73.8629 393.569 74.6436C393.244 75.4243 392.767 76.1332 392.168 76.7296C391.568 77.326 390.856 77.7983 390.073 78.1193C389.291 78.4404 388.453 78.6039 387.607 78.6007H387.644Z" fill="#E9AA09"/>
</svg>
