<svg width="801" height="285" viewBox="0 0 801 285" fill="none" xmlns="http://www.w3.org/2000/svg">
<path d="M23.4427 78.2202L71.4378 69.8108L72.6684 108.576V131.958L131.944 121.088C140.285 107.824 144.456 92.7144 144.456 75.7589C144.456 71.2465 144.046 67.0077 143.225 63.0422C109.588 53.6073 62.0029 48.8899 0.470703 48.8899L7.85456 0.0743408C68.703 0.89477 120.8 5.95408 164.146 15.2523C170.573 16.8931 177.683 23.9351 185.477 36.3783C192.861 48.1378 196.553 56.3421 196.553 60.9912C196.553 65.6403 196.211 70.5628 195.528 75.7589C194.844 80.8182 193.818 86.2877 192.451 92.1675C187.392 113.909 181.922 127.446 176.042 132.779C172.214 136.334 161.411 140.846 143.636 146.316L143.225 147.957L184.042 166.416C185.956 174.621 186.913 182.756 186.913 190.824C186.913 198.755 186.435 205.728 185.477 211.745C184.52 217.761 183.358 223.436 181.991 228.769C177.341 245.451 172.351 255.57 167.018 259.125C158.54 264.731 126.338 270.064 70.4123 275.123C53.0465 276.627 39.3727 277.516 29.3908 277.789L23.4427 78.2202ZM75.5399 234.512C100.836 232.324 119.296 229.384 130.919 225.692C135.158 211.745 137.277 201.284 137.277 194.311C137.277 187.2 137.072 181.868 136.662 178.312C136.388 174.621 135.226 171.954 133.175 170.313L74.3093 164.365L75.5399 234.512Z" fill="white"/>
<path d="M215.144 110.217L214.734 72.2721L258.422 67.7597L265.6 98.936L296.982 64.478H321.39L331.645 112.473C331.645 112.473 320.911 114.798 299.443 119.447C289.188 121.635 278.591 124.027 267.652 126.625L264.78 266.919L218.426 271.021L215.144 110.217Z" fill="white"/>
<path d="M483.949 284.148C427.613 278.405 383.447 269.859 351.45 258.509C345.57 256.322 341.673 243.742 339.759 220.77C338.118 199.712 339.896 181.457 345.092 166.006C347.28 159.579 349.878 156.024 352.886 155.34C365.739 151.922 379.276 149.461 393.497 147.957L436.159 143.239L435.339 114.319C420.434 111.448 405.598 109.191 390.831 107.551C376.2 105.773 361.637 103.722 347.143 101.397L358.014 56.4788L392.677 61.6065C424.4 66.2556 449.628 71.9302 468.361 78.6304C477.386 81.9121 481.898 88.5439 481.898 98.5258L482.719 210.925L439.031 215.232L437.8 180.158L426.109 182.415C412.982 184.602 400.471 187.337 388.575 190.619C387.07 197.866 386.318 203.883 386.318 208.668C386.318 215.642 386.592 221.043 387.139 224.872C406.419 229.247 436.159 233.691 476.36 238.204L493.179 240.05L483.949 284.148Z" fill="white"/>
<path d="M525.914 259.74C518.394 257.279 514.018 251.604 512.787 242.716C510.053 223.846 508.685 206.617 508.685 191.029C508.685 175.304 508.822 163.682 509.096 156.161C509.506 148.504 510.053 141.12 510.736 134.009C513.198 104.337 516.548 86.9714 520.787 81.9121C522.974 79.1773 526.53 77.1263 531.452 75.7589C536.512 74.2548 543.212 72.7507 551.553 71.2465C560.03 69.6057 568.918 68.1016 578.217 66.7342C587.652 65.2301 596.881 63.8627 605.906 62.632C615.068 61.4014 622.862 60.3075 629.288 59.3503L636.467 105.499L620.674 107.14C591.412 110.149 572.747 112.678 564.68 114.729C562.492 123.207 560.988 135.103 560.167 150.418C559.347 165.733 558.937 176.945 558.937 184.055C558.937 201.695 559.62 214.89 560.988 223.641L639.339 238.204L627.237 282.302C616.025 280.524 605.496 278.61 595.651 276.559L570.833 271.431C548.408 266.509 533.435 262.612 525.914 259.74Z" fill="white"/>
<path d="M652.178 132.779C652.178 114.456 654.093 103.859 657.921 100.987C661.75 98.1156 666.057 95.2441 670.843 92.3726C675.629 89.3643 680.893 86.4245 686.636 83.553C692.379 80.6815 698.327 77.9467 704.481 75.3487C710.771 72.7507 716.924 70.4261 722.94 68.375C735.794 63.9994 745.365 61.8116 751.655 61.8116C758.082 61.8116 763.278 62.1534 767.243 62.8371C771.209 63.3841 774.832 64.3413 778.114 65.7086C785.635 68.8536 789.874 73.4343 790.831 79.4508C795.343 108.029 797.599 142.077 797.599 181.594V193.696L699.353 194.926V221.59C710.018 224.188 722.735 226.581 737.503 228.769L772.781 234.512C781.806 235.879 791.036 237.452 800.471 239.229L788.369 284.148C750.766 278.268 710.839 268.765 668.587 255.638C658.878 252.493 653.888 246.818 653.614 238.614L652.178 132.779ZM751.45 149.597C751.45 136.744 750.151 123.207 747.553 108.986C742.084 108.986 737.708 109.26 734.426 109.807C731.145 110.354 727.863 111.106 724.581 112.063C721.299 113.02 717.949 114.114 714.531 115.345C706.463 118.216 701.13 120.677 698.532 122.728V159.648L751.45 153.905V149.597Z" fill="white"/>
</svg>
