<svg width="619" height="217" viewBox="0 0 619 217" fill="none" xmlns="http://www.w3.org/2000/svg">
<path d="M112.171 126.398C112.171 133.116 112.932 138.446 114.455 142.388C111.947 144.627 109.08 145.747 105.856 145.747C103.437 145.747 101.466 145.075 99.9436 143.731C98.5103 142.298 97.7937 140.372 97.7937 137.954L97.6594 67.2776L71.9957 131.504C68.9501 132.579 66.218 133.116 63.7994 133.116C62.0079 133.116 60.1268 132.758 58.1561 132.042C48.7505 113.41 39.3898 91.8216 30.0738 67.2776L30.2081 126.533C30.2081 133.878 30.9248 139.656 32.358 143.866C30.9248 145.12 29.0884 145.747 26.849 145.747C23.4451 145.747 21.7432 143.686 21.7432 139.566V67.9494C21.7432 60.2458 21.4296 54.6025 20.8026 51.0194C22.3254 49.6758 25.7293 49.004 31.0143 49.004C32.8059 49.004 34.2839 49.2279 35.4484 49.6758C36.7025 50.1237 37.8222 50.8403 38.8075 51.8256C49.6463 77.7133 59.0966 100.152 67.1585 119.142C74.0559 101.854 82.8792 78.9673 93.6284 50.482C96.2261 49.4966 99.3165 49.004 102.9 49.004C105.139 49.004 107.154 49.3623 108.946 50.0789C110.827 50.7955 111.902 51.6465 112.171 52.6318V126.398ZM189.912 132.042C190.987 133.475 191.525 135.132 191.525 137.013C191.525 139.342 190.495 141.313 188.434 142.925C186.374 144.537 183.732 145.344 180.507 145.344C176.118 145.344 172.803 143.866 170.564 140.91C168.324 137.864 167.16 132.982 167.07 126.264C164.383 132.086 160.71 136.744 156.052 140.238C151.395 143.731 146.065 145.478 140.063 145.478C134.868 145.478 130.658 144.09 127.433 141.313C124.298 138.446 122.73 134.594 122.73 129.757C122.73 124.114 124.88 119.456 129.179 115.783C133.479 112.111 138.988 109.334 145.706 107.453C152.425 105.572 159.277 104.721 166.264 104.9V101.541C166.264 93.7475 165.189 88.0146 163.039 84.3419C160.89 80.6693 157.307 78.833 152.29 78.833C148.886 78.833 146.109 79.6392 143.96 81.2516C141.899 82.8639 140.869 85.5064 140.869 89.1791C140.869 91.2394 141.272 93.1652 142.079 94.9568C142.885 96.7483 144.228 98.092 146.109 98.9877C145.214 99.9731 144.004 100.734 142.482 101.272C141.048 101.72 139.526 101.944 137.913 101.944C134.33 101.944 131.419 100.779 129.179 98.4503C127.03 96.0317 125.955 93.1205 125.955 89.7165C125.955 84.4315 128.373 80.4006 133.21 77.6237C138.048 74.7572 144.721 73.324 153.231 73.324C162.905 73.324 169.982 75.653 174.46 80.311C179.029 84.8794 181.313 92.2247 181.313 102.347V127.07C181.313 131.818 182.836 134.191 185.882 134.191C186.598 134.191 187.315 134.012 188.031 133.654C188.838 133.296 189.465 132.758 189.912 132.042ZM146.781 135.669C149.737 135.669 152.738 134.505 155.784 132.176C158.919 129.757 161.517 126.577 163.577 122.636C165.637 118.695 166.667 114.484 166.667 110.006C163.532 109.827 160.352 110.006 157.127 110.543C153.903 110.991 151.126 111.752 148.797 112.827C145.662 114.171 143.198 116.007 141.407 118.336C139.705 120.576 138.854 123.218 138.854 126.264C138.854 128.951 139.481 131.191 140.735 132.982C142.079 134.774 144.094 135.669 146.781 135.669ZM258.653 126.398C258.832 133.743 259.638 139.073 261.071 142.388C258.653 144.627 255.831 145.747 252.606 145.747C250.098 145.747 248.038 145.075 246.426 143.731C244.813 142.298 244.007 140.372 244.007 137.954V102.884C243.917 95.4495 243.022 89.9853 241.32 86.4918C239.707 82.9087 236.706 81.1172 232.317 81.1172C229.361 81.1172 226.629 82.2369 224.121 84.4763C221.702 86.7157 219.732 90.1644 218.209 94.8224C216.686 99.3908 215.925 105.124 215.925 112.021C215.925 122.591 216.059 129.578 216.328 132.982C216.597 136.386 217.313 139.566 218.478 142.522C217.582 143.328 216.373 144.045 214.85 144.672C213.417 145.388 211.849 145.747 210.147 145.747C207.549 145.747 205.444 144.985 203.832 143.463C202.219 141.94 201.413 139.879 201.413 137.282V91.4633C201.324 88.9551 201.01 87.1636 200.473 86.0887C199.935 85.0138 199.039 84.4763 197.785 84.4763C196.083 84.4763 194.919 85.1034 194.292 86.3574C193.127 84.6555 192.545 82.9535 192.545 81.2516C192.545 78.9226 193.396 77.0415 195.098 75.6082C196.8 74.0854 199.174 73.324 202.219 73.324C206.071 73.324 209.027 74.6677 211.088 77.355C213.237 79.9527 214.312 83.8493 214.312 89.0447V89.7165C216.104 84.4315 218.926 80.4006 222.777 77.6237C226.719 74.7572 231.466 73.324 237.02 73.324C244.365 73.324 249.785 75.6082 253.278 80.1766C256.861 84.745 258.653 91.5977 258.653 100.734V126.398ZM299.776 145.747C289.654 145.747 281.771 142.567 276.128 136.207C270.574 129.847 267.797 120.979 267.797 109.603C267.797 98.1368 270.619 89.2239 276.262 82.8639C281.905 76.504 289.743 73.324 299.776 73.324C309.898 73.324 317.781 76.504 323.424 82.8639C329.067 89.2239 331.889 98.1368 331.889 109.603C331.889 120.979 329.067 129.847 323.424 136.207C317.781 142.567 309.898 145.747 299.776 145.747ZM299.776 140.238C305.15 140.238 309.181 137.64 311.869 132.445C314.645 127.249 316.034 119.635 316.034 109.603C316.034 99.4804 314.645 91.8216 311.869 86.6262C309.181 81.4307 305.15 78.833 299.776 78.833C294.401 78.833 290.325 81.4307 287.549 86.6262C284.861 91.8216 283.518 99.4804 283.518 109.603C283.518 119.635 284.861 127.249 287.549 132.445C290.325 137.64 294.401 140.238 299.776 140.238ZM397.417 126.398C397.417 133.385 398.134 138.715 399.567 142.388C397.148 144.627 394.372 145.747 391.236 145.747C388.728 145.747 386.668 145.03 385.056 143.597C383.533 142.164 382.771 140.283 382.771 137.954V102.884C382.771 95.2703 381.876 89.6718 380.084 86.0887C378.382 82.416 375.336 80.5797 370.947 80.5797C368.081 80.5797 365.393 81.7442 362.885 84.0732C360.467 86.3126 358.496 89.8061 356.973 94.5537C355.45 99.2117 354.689 105.034 354.689 112.021C354.689 122.591 354.779 129.578 354.958 132.982C355.227 136.386 355.943 139.566 357.108 142.522C356.301 143.328 355.182 144.045 353.748 144.672C352.315 145.388 350.658 145.747 348.777 145.747C346.269 145.747 344.209 144.985 342.596 143.463C341.073 141.94 340.312 139.879 340.312 137.282L340.178 53.438C340.178 50.9299 340.894 49.0487 342.327 47.7947C343.85 46.451 345.866 45.7792 348.374 45.7792C350.165 45.7792 351.823 46.1375 353.345 46.8541C354.958 47.4812 356.257 48.1978 357.242 49.004C356.257 52.2287 355.585 55.9014 355.227 60.0219C354.868 64.1424 354.644 69.4722 354.555 76.0113V87.8354C356.436 83.1775 359.168 79.5944 362.751 77.0862C366.424 74.5781 370.768 73.324 375.784 73.324C383.13 73.324 388.549 75.6082 392.043 80.1766C395.536 84.745 397.283 91.5977 397.283 100.734L397.417 126.398ZM474.997 132.042C476.072 133.475 476.61 135.132 476.61 137.013C476.61 139.342 475.579 141.313 473.519 142.925C471.459 144.537 468.816 145.344 465.592 145.344C461.202 145.344 457.888 143.866 455.649 140.91C453.409 137.864 452.245 132.982 452.155 126.264C449.468 132.086 445.795 136.744 441.137 140.238C436.479 143.731 431.149 145.478 425.148 145.478C419.952 145.478 415.742 144.09 412.517 141.313C409.382 138.446 407.815 134.594 407.815 129.757C407.815 124.114 409.965 119.456 414.264 115.783C418.564 112.111 424.073 109.334 430.791 107.453C437.509 105.572 444.362 104.721 451.349 104.9V101.541C451.349 93.7475 450.274 88.0146 448.124 84.3419C445.974 80.6693 442.391 78.833 437.375 78.833C433.971 78.833 431.194 79.6392 429.044 81.2516C426.984 82.8639 425.954 85.5064 425.954 89.1791C425.954 91.2394 426.357 93.1652 427.163 94.9568C427.969 96.7483 429.313 98.092 431.194 98.9877C430.298 99.9731 429.089 100.734 427.566 101.272C426.133 101.72 424.61 101.944 422.998 101.944C419.415 101.944 416.504 100.779 414.264 98.4503C412.114 96.0317 411.039 93.1205 411.039 89.7165C411.039 84.4315 413.458 80.4006 418.295 77.6237C423.132 74.7572 429.806 73.324 438.316 73.324C447.99 73.324 455.066 75.653 459.545 80.311C464.114 84.8794 466.398 92.2247 466.398 102.347V127.07C466.398 131.818 467.921 134.191 470.966 134.191C471.683 134.191 472.399 134.012 473.116 133.654C473.922 133.296 474.549 132.758 474.997 132.042ZM431.866 135.669C434.822 135.669 437.823 134.505 440.868 132.176C444.004 129.757 446.601 126.577 448.662 122.636C450.722 118.695 451.752 114.484 451.752 110.006C448.617 109.827 445.437 110.006 442.212 110.543C438.987 110.991 436.21 111.752 433.881 112.827C430.746 114.171 428.283 116.007 426.491 118.336C424.789 120.576 423.938 123.218 423.938 126.264C423.938 128.951 424.566 131.191 425.82 132.982C427.163 134.774 429.179 135.669 431.866 135.669ZM518.477 73.324C523.404 73.324 527.39 74.6229 530.435 77.2206C533.481 79.8183 535.004 83.4014 535.004 87.9698C535.004 91.3737 534.018 94.1058 532.048 96.1661C530.077 98.2263 527.614 99.2565 524.658 99.2565C521.881 99.2565 519.865 98.5398 518.611 97.1066C519.597 95.4942 520.268 94.061 520.627 92.8069C520.985 91.4633 521.164 89.9405 521.164 88.2385C521.164 83.1327 518.925 80.5797 514.446 80.5797C510.863 80.5797 507.952 83.2222 505.712 88.5073C503.562 93.7027 502.487 101.541 502.487 112.021V117.127C502.487 125.099 502.622 130.608 502.89 133.654C503.159 136.61 503.831 139.432 504.906 142.119C504.01 142.925 502.846 143.642 501.412 144.269C499.979 144.896 498.322 145.254 496.441 145.344C494.022 145.344 491.962 144.582 490.26 143.059C488.648 141.537 487.842 139.476 487.842 136.879V91.4633C487.842 89.0447 487.528 87.298 486.901 86.2231C486.364 85.0586 485.468 84.4763 484.214 84.4763C482.512 84.4763 481.347 85.1034 480.72 86.3574C479.556 84.6555 478.973 82.9535 478.973 81.2516C478.973 78.9226 479.824 77.0415 481.526 75.6082C483.228 74.0854 485.602 73.324 488.648 73.324C492.32 73.324 495.232 74.5781 497.381 77.0862C499.531 79.5944 500.651 83.3118 500.741 88.2385C503.876 78.2955 509.788 73.324 518.477 73.324ZM606.087 132.042C607.162 133.475 607.699 135.132 607.699 137.013C607.699 139.342 606.669 141.313 604.609 142.925C602.549 144.537 599.906 145.344 596.681 145.344C592.292 145.344 588.978 143.866 586.738 140.91C584.499 137.864 583.335 132.982 583.245 126.264C580.558 132.086 576.885 136.744 572.227 140.238C567.569 143.731 562.239 145.478 556.238 145.478C551.042 145.478 546.832 144.09 543.607 141.313C540.472 138.446 538.905 134.594 538.905 129.757C538.905 124.114 541.054 119.456 545.354 115.783C549.654 112.111 555.163 109.334 561.881 107.453C568.599 105.572 575.452 104.721 582.439 104.9V101.541C582.439 93.7475 581.364 88.0146 579.214 84.3419C577.064 80.6693 573.481 78.833 568.465 78.833C565.061 78.833 562.284 79.6392 560.134 81.2516C558.074 82.8639 557.044 85.5064 557.044 89.1791C557.044 91.2394 557.447 93.1652 558.253 94.9568C559.059 96.7483 560.403 98.092 562.284 98.9877C561.388 99.9731 560.179 100.734 558.656 101.272C557.223 101.72 555.7 101.944 554.088 101.944C550.505 101.944 547.593 100.779 545.354 98.4503C543.204 96.0317 542.129 93.1205 542.129 89.7165C542.129 84.4315 544.548 80.4006 549.385 77.6237C554.222 74.7572 560.896 73.324 569.405 73.324C579.08 73.324 586.156 75.653 590.635 80.311C595.203 84.8794 597.488 92.2247 597.488 102.347V127.07C597.488 131.818 599.01 134.191 602.056 134.191C602.773 134.191 603.489 134.012 604.206 133.654C605.012 133.296 605.639 132.758 606.087 132.042ZM562.956 135.669C565.912 135.669 568.913 134.505 571.958 132.176C575.094 129.757 577.691 126.577 579.751 122.636C581.812 118.695 582.842 114.484 582.842 110.006C579.707 109.827 576.527 110.006 573.302 110.543C570.077 110.991 567.3 111.752 564.971 112.827C561.836 114.171 559.373 116.007 557.581 118.336C555.879 120.576 555.028 123.218 555.028 126.264C555.028 128.951 555.655 131.191 556.909 132.982C558.253 134.774 560.269 135.669 562.956 135.669Z" fill="#FAFAFA"/>
<path d="M46.4819 195.356V176.587H52.7802C53.9727 176.587 55.0225 176.822 55.9294 177.292C56.8364 177.763 57.5418 178.426 58.0457 179.283C58.5663 180.139 58.8267 181.13 58.8267 182.255C58.8267 183.381 58.5663 184.372 58.0457 185.228C57.5418 186.068 56.8364 186.731 55.9294 187.218C55.0393 187.689 53.9895 187.924 52.7802 187.924H48.1195V195.356H46.4819ZM48.1195 186.412H52.8306C53.6872 186.412 54.443 186.244 55.098 185.908C55.7531 185.556 56.2653 185.069 56.6348 184.447C57.0043 183.809 57.1891 183.07 57.1891 182.23C57.1891 181.39 57.0043 180.668 56.6348 180.064C56.2653 179.442 55.7531 178.963 55.098 178.628C54.443 178.275 53.6872 178.098 52.8306 178.098H48.1195V186.412ZM80.7589 195.658C79.4153 195.658 78.2228 195.356 77.1815 194.751C76.1401 194.13 75.3171 193.29 74.7125 192.232C74.1247 191.157 73.8307 189.956 73.8307 188.629C73.8307 187.302 74.1163 186.118 74.6873 185.077C75.2584 184.019 76.031 183.188 77.0051 182.583C77.9793 181.978 79.071 181.676 80.2803 181.676C81.204 181.676 82.0354 181.844 82.7744 182.18C83.5302 182.516 84.1768 182.986 84.7143 183.591C85.2686 184.178 85.6884 184.859 85.974 185.631C86.2763 186.387 86.4275 187.185 86.4275 188.025C86.4275 188.193 86.4191 188.369 86.4023 188.554C86.3855 188.738 86.3603 188.932 86.3267 189.133H74.7125V187.748H85.4701L84.7899 188.277C84.8907 187.302 84.7479 186.429 84.3616 185.656C83.9753 184.867 83.421 184.246 82.6988 183.792C81.9934 183.322 81.1872 183.087 80.2803 183.087C79.3733 183.087 78.5419 183.33 77.7861 183.817C77.0303 184.288 76.4341 184.943 75.9974 185.782C75.5607 186.605 75.3591 187.563 75.3927 188.655C75.3591 189.746 75.5691 190.712 76.0226 191.552C76.4928 192.392 77.1395 193.055 77.9625 193.542C78.7854 194.012 79.7176 194.247 80.7589 194.247H85.4953V195.658H80.7589ZM101.244 195.356V181.978H102.755V184.472L102.478 184.246C102.764 183.49 103.251 182.894 103.939 182.457C104.645 182.02 105.476 181.802 106.433 181.802H107.29V183.313H106.257C105.165 183.313 104.309 183.666 103.687 184.372C103.066 185.06 102.755 185.992 102.755 187.168V195.356H101.244ZM120.412 200.899C120.244 200.899 120.068 200.882 119.883 200.848C119.699 200.831 119.539 200.806 119.405 200.773V199.387C119.724 199.437 120.051 199.462 120.387 199.462C121.177 199.462 121.806 199.236 122.277 198.782C122.764 198.329 123.007 197.657 123.007 196.767V181.978H124.519V196.767C124.519 197.657 124.334 198.404 123.965 199.009C123.612 199.63 123.125 200.101 122.503 200.42C121.899 200.739 121.202 200.899 120.412 200.899ZM123.007 179.358V176.587H124.519V179.358H123.007ZM145.092 195.658C144.118 195.658 143.236 195.448 142.447 195.028C141.657 194.609 141.028 194.012 140.557 193.24C140.087 192.467 139.852 191.552 139.852 190.494V181.978H141.364V190.418C141.364 191.207 141.531 191.888 141.867 192.459C142.203 193.013 142.648 193.441 143.203 193.744C143.774 194.029 144.404 194.172 145.092 194.172C145.798 194.172 146.427 194.029 146.982 193.744C147.553 193.441 148.006 193.013 148.342 192.459C148.678 191.888 148.846 191.207 148.846 190.418V181.978H150.358V190.494C150.358 191.552 150.122 192.467 149.652 193.24C149.182 194.012 148.552 194.609 147.763 195.028C146.973 195.448 146.083 195.658 145.092 195.658ZM169.209 195.658C168.369 195.658 167.622 195.499 166.967 195.18C166.312 194.86 165.791 194.415 165.405 193.844C165.018 193.273 164.825 192.618 164.825 191.879C164.825 191.224 164.968 190.611 165.254 190.04C165.539 189.469 166.001 188.982 166.639 188.579C167.277 188.159 168.109 187.865 169.133 187.697L174.55 186.79V188.201L169.536 189.032C168.394 189.217 167.588 189.561 167.118 190.065C166.648 190.569 166.412 191.157 166.412 191.829C166.412 192.551 166.681 193.139 167.219 193.592C167.773 194.046 168.47 194.273 169.31 194.273C170.284 194.273 171.132 194.054 171.854 193.618C172.576 193.164 173.139 192.576 173.542 191.854C173.945 191.115 174.147 190.309 174.147 189.436V186.992C174.147 185.9 173.828 185.035 173.19 184.397C172.551 183.742 171.686 183.414 170.595 183.414H166.035V181.978H170.595C171.636 181.978 172.534 182.18 173.29 182.583C174.046 182.986 174.626 183.565 175.029 184.321C175.449 185.06 175.658 185.95 175.658 186.992V195.356H174.147V192.559L174.323 192.685C174.105 193.223 173.744 193.718 173.24 194.172C172.736 194.609 172.14 194.97 171.451 195.255C170.779 195.524 170.032 195.658 169.209 195.658ZM192.418 195.356V181.978H197.885C198.926 181.978 199.817 182.18 200.556 182.583C201.311 182.986 201.891 183.565 202.294 184.321C202.714 185.06 202.924 185.95 202.924 186.992V195.356H201.412V186.992C201.412 185.9 201.093 185.035 200.455 184.397C199.833 183.742 198.977 183.414 197.885 183.414H193.93V195.356H192.418ZM219.986 200.899V199.412H224.975C226.352 199.412 227.444 199.059 228.25 198.354C229.056 197.665 229.459 196.725 229.459 195.532V191.451L229.736 191.804C229.266 192.845 228.552 193.668 227.595 194.273C226.638 194.86 225.571 195.154 224.395 195.154C223.152 195.154 222.036 194.852 221.045 194.247C220.054 193.643 219.273 192.828 218.702 191.804C218.147 190.779 217.87 189.645 217.87 188.403C217.87 187.16 218.147 186.034 218.702 185.027C219.273 184.002 220.045 183.188 221.019 182.583C222.01 181.978 223.136 181.676 224.395 181.676C225.571 181.676 226.629 181.97 227.57 182.558C228.51 183.129 229.232 183.901 229.736 184.875L229.459 185.354V181.978H230.971V195.532C230.971 196.607 230.719 197.548 230.215 198.354C229.728 199.16 229.031 199.782 228.124 200.218C227.234 200.672 226.184 200.899 224.975 200.899H219.986ZM224.446 193.643C225.386 193.643 226.226 193.408 226.965 192.937C227.721 192.467 228.317 191.837 228.754 191.048C229.19 190.242 229.409 189.36 229.409 188.403C229.409 187.445 229.19 186.572 228.754 185.782C228.317 184.993 227.721 184.363 226.965 183.893C226.226 183.423 225.386 183.188 224.446 183.188C223.488 183.188 222.632 183.423 221.876 183.893C221.12 184.363 220.532 184.993 220.112 185.782C219.693 186.572 219.483 187.445 219.483 188.403C219.483 189.36 219.693 190.242 220.112 191.048C220.532 191.837 221.112 192.467 221.851 192.937C222.607 193.408 223.472 193.643 224.446 193.643ZM249.163 195.658C248.323 195.658 247.575 195.499 246.92 195.18C246.265 194.86 245.745 194.415 245.358 193.844C244.972 193.273 244.779 192.618 244.779 191.879C244.779 191.224 244.922 190.611 245.207 190.04C245.493 189.469 245.955 188.982 246.593 188.579C247.231 188.159 248.063 187.865 249.087 187.697L254.504 186.79V188.201L249.49 189.032C248.348 189.217 247.542 189.561 247.072 190.065C246.601 190.569 246.366 191.157 246.366 191.829C246.366 192.551 246.635 193.139 247.172 193.592C247.727 194.046 248.424 194.273 249.263 194.273C250.238 194.273 251.086 194.054 251.808 193.618C252.53 193.164 253.093 192.576 253.496 191.854C253.899 191.115 254.101 190.309 254.101 189.436V186.992C254.101 185.9 253.781 185.035 253.143 184.397C252.505 183.742 251.64 183.414 250.548 183.414H245.988V181.978H250.548C251.59 181.978 252.488 182.18 253.244 182.583C254 182.986 254.579 183.565 254.982 184.321C255.402 185.06 255.612 185.95 255.612 186.992V195.356H254.101V192.559L254.277 192.685C254.059 193.223 253.697 193.718 253.194 194.172C252.69 194.609 252.093 194.97 251.405 195.255C250.733 195.524 249.986 195.658 249.163 195.658ZM271.994 195.356V181.978H277.461C278.502 181.978 279.392 182.18 280.131 182.583C280.887 182.986 281.467 183.565 281.87 184.321C282.29 185.06 282.5 185.95 282.5 186.992V195.356H280.988V186.992C280.988 185.9 280.669 185.035 280.031 184.397C279.409 183.742 278.553 183.414 277.461 183.414H273.506V195.356H271.994ZM325.361 195.658C324.068 195.658 322.876 195.423 321.784 194.953C320.692 194.466 319.735 193.786 318.912 192.912C318.106 192.039 317.476 191.014 317.022 189.839C316.586 188.663 316.367 187.37 316.367 185.959C316.367 184.565 316.586 183.28 317.022 182.104C317.476 180.912 318.106 179.887 318.912 179.031C319.735 178.157 320.692 177.485 321.784 177.015C322.876 176.528 324.068 176.285 325.361 176.285C326.621 176.285 327.755 176.511 328.762 176.965C329.77 177.418 330.618 177.998 331.307 178.703C331.996 179.409 332.491 180.139 332.793 180.895L331.257 181.575C330.753 180.45 329.989 179.543 328.964 178.854C327.956 178.166 326.755 177.821 325.361 177.821C323.934 177.821 322.657 178.166 321.532 178.854C320.423 179.543 319.558 180.5 318.937 181.726C318.316 182.936 318.005 184.346 318.005 185.959C318.005 187.571 318.316 188.99 318.937 190.216C319.558 191.443 320.423 192.4 321.532 193.089C322.657 193.76 323.934 194.096 325.361 194.096C326.755 194.096 327.956 193.76 328.964 193.089C329.989 192.4 330.753 191.493 331.257 190.368L332.793 191.048C332.491 191.787 331.996 192.509 331.307 193.215C330.618 193.92 329.77 194.508 328.762 194.978C327.755 195.432 326.621 195.658 325.361 195.658ZM347.762 195.356V181.978H349.274V195.356H347.762ZM347.762 179.358V176.587H349.274V179.358H347.762ZM364.002 195.356V181.978H369.469C370.51 181.978 371.401 182.18 372.14 182.583C372.895 182.986 373.475 183.565 373.878 184.321C374.298 185.06 374.508 185.95 374.508 186.992V195.356H372.996V186.992C372.996 185.9 372.677 185.035 372.039 184.397C371.417 183.742 370.561 183.414 369.469 183.414H365.514V195.356H364.002ZM393.737 195.507C392.629 195.507 391.772 195.196 391.167 194.575C390.563 193.937 390.26 193.013 390.26 191.804V183.414H387.741V181.978H388.698C389.202 181.978 389.589 181.827 389.857 181.525C390.126 181.222 390.26 180.811 390.26 180.29V178.854H391.772V181.978H394.694V183.414H391.772V191.804C391.772 192.173 391.822 192.534 391.923 192.887C392.041 193.24 392.259 193.525 392.578 193.744C392.897 193.962 393.359 194.071 393.964 194.071C394.098 194.071 394.258 194.063 394.443 194.046C394.644 194.029 394.804 194.012 394.921 193.996V195.356C394.736 195.406 394.527 195.44 394.291 195.457C394.056 195.49 393.872 195.507 393.737 195.507ZM412.576 195.658C411.737 195.658 410.989 195.499 410.334 195.18C409.679 194.86 409.159 194.415 408.772 193.844C408.386 193.273 408.193 192.618 408.193 191.879C408.193 191.224 408.336 190.611 408.621 190.04C408.907 189.469 409.369 188.982 410.007 188.579C410.645 188.159 411.476 187.865 412.501 187.697L417.918 186.79V188.201L412.904 189.032C411.762 189.217 410.956 189.561 410.485 190.065C410.015 190.569 409.78 191.157 409.78 191.829C409.78 192.551 410.049 193.139 410.586 193.592C411.14 194.046 411.837 194.273 412.677 194.273C413.651 194.273 414.5 194.054 415.222 193.618C415.944 193.164 416.507 192.576 416.91 191.854C417.313 191.115 417.514 190.309 417.514 189.436V186.992C417.514 185.9 417.195 185.035 416.557 184.397C415.919 183.742 415.054 183.414 413.962 183.414H409.402V181.978H413.962C415.003 181.978 415.902 182.18 416.658 182.583C417.414 182.986 417.993 183.565 418.396 184.321C418.816 185.06 419.026 185.95 419.026 186.992V195.356H417.514V192.559L417.691 192.685C417.472 193.223 417.111 193.718 416.607 194.172C416.104 194.609 415.507 194.97 414.819 195.255C414.147 195.524 413.399 195.658 412.576 195.658ZM458.914 195.658C457.722 195.658 456.647 195.432 455.69 194.978C454.749 194.525 453.96 193.928 453.321 193.189C452.7 192.45 452.255 191.653 451.986 190.796L453.447 190.267C453.918 191.543 454.615 192.517 455.538 193.189C456.479 193.861 457.596 194.197 458.889 194.197C459.746 194.197 460.493 194.054 461.131 193.769C461.786 193.483 462.299 193.08 462.668 192.559C463.038 192.039 463.222 191.426 463.222 190.72C463.222 189.746 462.945 188.99 462.391 188.453C461.854 187.915 461.148 187.529 460.275 187.294L456.848 186.286C455.454 185.883 454.421 185.237 453.75 184.346C453.095 183.439 452.767 182.415 452.767 181.273C452.767 180.282 453.002 179.417 453.473 178.678C453.96 177.922 454.615 177.334 455.438 176.914C456.261 176.494 457.193 176.285 458.234 176.285C459.326 176.285 460.3 176.494 461.157 176.914C462.03 177.317 462.761 177.855 463.348 178.527C463.953 179.182 464.381 179.912 464.633 180.719L463.197 181.248C462.777 180.089 462.131 179.215 461.257 178.628C460.384 178.023 459.385 177.721 458.259 177.721C457.52 177.721 456.857 177.863 456.269 178.149C455.681 178.434 455.219 178.837 454.883 179.358C454.547 179.879 454.379 180.492 454.379 181.197C454.379 182.054 454.623 182.784 455.11 183.389C455.597 183.994 456.412 184.472 457.554 184.825L460.627 185.732C461.971 186.135 463.004 186.757 463.726 187.596C464.465 188.419 464.835 189.436 464.835 190.645C464.835 191.636 464.583 192.509 464.079 193.265C463.575 194.004 462.87 194.592 461.963 195.028C461.073 195.448 460.056 195.658 458.914 195.658ZM486.062 195.658C484.719 195.658 483.526 195.356 482.485 194.751C481.443 194.13 480.62 193.29 480.016 192.232C479.428 191.157 479.134 189.956 479.134 188.629C479.134 187.302 479.42 186.118 479.991 185.077C480.562 184.019 481.334 183.188 482.308 182.583C483.283 181.978 484.374 181.676 485.584 181.676C486.507 181.676 487.339 181.844 488.078 182.18C488.833 182.516 489.48 182.986 490.018 183.591C490.572 184.178 490.992 184.859 491.277 185.631C491.58 186.387 491.731 187.185 491.731 188.025C491.731 188.193 491.722 188.369 491.706 188.554C491.689 188.738 491.664 188.932 491.63 189.133H480.016V187.748H490.773L490.093 188.277C490.194 187.302 490.051 186.429 489.665 185.656C489.279 184.867 488.724 184.246 488.002 183.792C487.297 183.322 486.49 183.087 485.584 183.087C484.677 183.087 483.845 183.33 483.089 183.817C482.334 184.288 481.737 184.943 481.301 185.782C480.864 186.605 480.662 187.563 480.696 188.655C480.662 189.746 480.872 190.712 481.326 191.552C481.796 192.392 482.443 193.055 483.266 193.542C484.089 194.012 485.021 194.247 486.062 194.247H490.799V195.658H486.062ZM504.33 200.899C504.162 200.899 503.986 200.882 503.801 200.848C503.616 200.831 503.456 200.806 503.322 200.773V199.387C503.641 199.437 503.969 199.462 504.305 199.462C505.094 199.462 505.724 199.236 506.194 198.782C506.681 198.329 506.925 197.657 506.925 196.767V181.978H508.436V196.767C508.436 197.657 508.252 198.404 507.882 199.009C507.529 199.63 507.042 200.101 506.421 200.42C505.816 200.739 505.119 200.899 504.33 200.899ZM506.925 179.358V176.587H508.436V179.358H506.925ZM527.498 195.658C526.658 195.658 525.911 195.499 525.256 195.18C524.601 194.86 524.08 194.415 523.694 193.844C523.307 193.273 523.114 192.618 523.114 191.879C523.114 191.224 523.257 190.611 523.543 190.04C523.828 189.469 524.29 188.982 524.928 188.579C525.566 188.159 526.398 187.865 527.422 187.697L532.839 186.79V188.201L527.825 189.032C526.683 189.217 525.877 189.561 525.407 190.065C524.937 190.569 524.701 191.157 524.701 191.829C524.701 192.551 524.97 193.139 525.508 193.592C526.062 194.046 526.759 194.273 527.599 194.273C528.573 194.273 529.421 194.054 530.143 193.618C530.865 193.164 531.428 192.576 531.831 191.854C532.234 191.115 532.436 190.309 532.436 189.436V186.992C532.436 185.9 532.117 185.035 531.478 184.397C530.84 183.742 529.975 183.414 528.884 183.414H524.324V181.978H528.884C529.925 181.978 530.823 182.18 531.579 182.583C532.335 182.986 532.914 183.565 533.318 184.321C533.737 185.06 533.947 185.95 533.947 186.992V195.356H532.436V192.559L532.612 192.685C532.394 193.223 532.033 193.718 531.529 194.172C531.025 194.609 530.429 194.97 529.74 195.255C529.068 195.524 528.321 195.658 527.498 195.658ZM554.814 195.507C553.705 195.507 552.849 195.196 552.244 194.575C551.639 193.937 551.337 193.013 551.337 191.804V183.414H548.818V181.978H549.775C550.279 181.978 550.665 181.827 550.934 181.525C551.203 181.222 551.337 180.811 551.337 180.29V178.854H552.849V181.978H555.771V183.414H552.849V191.804C552.849 192.173 552.899 192.534 553 192.887C553.117 193.24 553.336 193.525 553.655 193.744C553.974 193.962 554.436 194.071 555.04 194.071C555.175 194.071 555.334 194.063 555.519 194.046C555.721 194.029 555.88 194.012 555.998 193.996V195.356C555.813 195.406 555.603 195.44 555.368 195.457C555.133 195.49 554.948 195.507 554.814 195.507ZM570.957 195.356V181.978H572.469V195.356H570.957ZM570.957 179.358V176.587H572.469V179.358H570.957Z" fill="#FAFAFA"/>
</svg>
