<svg width="562" height="335" viewBox="0 0 562 335" fill="none" xmlns="http://www.w3.org/2000/svg">
<path d="M75.4358 20.7368C68.2514 21.044 59.5012 21.597 49.1852 22.3957L50.0142 60.7357L47.8957 118.891L27.3558 120.55L26.2506 23.2252C20.9083 23.3481 15.9652 23.5324 11.4213 23.7782C6.93874 24.0239 3.13164 24.1468 0 24.1468L1.65793 4.14736C22.904 1.38245 46.6983 0 73.041 0L75.4358 20.7368Z" fill="#E9AA09"/>
<path d="M63.0836 59.1689L62.8994 42.1187L80.5533 40.0911L83.777 54.0999L97.8694 38.6165H108.83L113.436 60.1827C113.436 60.1827 108.615 61.2273 98.9747 63.3163C94.3693 64.2994 89.6105 65.3746 84.6981 66.542L83.4086 129.582L64.5573 131.425L63.0836 59.1689Z" fill="#E9AA09"/>
<path d="M120.334 55.5438C120.334 47.3106 121.193 42.5488 122.913 41.2585C124.632 39.9682 126.566 38.6779 128.716 37.3876C130.865 36.0359 133.229 34.7149 135.808 33.4246C138.387 32.1343 141.058 30.9055 143.821 29.7381C146.646 28.5707 149.409 27.5261 152.111 26.6045C157.883 24.6384 162.181 23.6553 165.006 23.6553C167.892 23.6553 170.225 23.8089 172.006 24.1161C173.787 24.3619 175.414 24.792 176.888 25.4064C180.265 26.8196 182.168 28.8779 182.598 31.5813C184.625 44.4228 185.638 59.7219 185.638 77.4787V82.9164L141.518 83.4694V95.4506C146.308 96.618 152.019 97.6933 158.65 98.6763L174.493 101.257C178.545 101.871 182.69 102.578 186.927 103.377L181.493 123.56C164.607 120.918 146.676 116.648 127.702 110.75C123.343 109.337 121.101 106.787 120.978 103.1L120.334 55.5438ZM164.914 63.1012C164.914 57.3257 164.33 51.2429 163.164 44.8529C160.707 44.8529 158.742 44.9758 157.269 45.2215C155.795 45.4673 154.321 45.8052 152.848 46.2353C151.374 46.6654 149.869 47.157 148.334 47.7099C144.711 49.0002 142.317 50.1062 141.15 51.0278V67.6173L164.914 65.0367V63.1012Z" fill="#E9AA09"/>
<path d="M263.489 133.391C238.19 130.811 218.357 126.971 203.988 121.871C201.348 120.888 199.598 115.235 198.738 104.913C198.001 95.4506 198.799 87.2481 201.133 80.3051C202.115 77.4173 203.282 75.8198 204.633 75.5126C210.405 73.9765 216.484 72.8706 222.87 72.1947L242.028 70.0749L241.66 57.0799C234.967 55.7896 228.304 54.7758 221.673 54.0385C215.102 53.2398 208.563 52.3181 202.054 51.2736L206.935 31.0898L222.501 33.3939C236.747 35.4829 248.077 38.0328 256.489 41.0435C260.542 42.5181 262.568 45.498 262.568 49.9833L262.937 100.489L243.318 102.424L242.765 86.6644L237.515 87.6782C231.62 88.6612 226.002 89.8901 220.659 91.3647C219.984 94.6211 219.646 97.3246 219.646 99.4751C219.646 102.609 219.769 105.036 220.015 106.756C228.673 108.722 242.028 110.719 260.081 112.747L267.634 113.576L263.489 133.391Z" fill="#E9AA09"/>
<path d="M278.401 108.077C278.401 108.077 284.971 107.678 298.112 106.879C304.191 106.51 310.301 105.896 316.441 105.036L317.086 93.423L284.756 80.7045C282.853 79.9672 281.41 78.554 280.427 76.4649C279.445 74.3145 278.953 72.6248 278.953 71.396C278.953 70.1671 278.953 69.3991 278.953 69.0919C279.015 68.7232 279.107 67.8937 279.23 66.6035L281.256 49.1846C281.87 44.2692 284.357 40.8591 288.717 38.9544C291.419 37.7256 294.827 36.6196 298.941 35.6365C307.353 33.6704 313.248 32.3494 316.625 31.6735L325.56 29.7381C328.139 29.2465 330.441 28.8164 332.468 28.4478L336.705 49.5532L300.783 54.8987L299.309 63.7464L333.297 79.5985C337.411 81.5032 339.161 85.159 338.547 90.566L336.06 112.777C335.507 117.508 331.669 120.673 324.546 122.27C316.932 124.359 308.489 125.895 299.217 126.878C290.006 127.923 283.927 128.507 280.98 128.629L278.401 108.077Z" fill="#E9AA09"/>
<path d="M360.735 114.037C359.077 113.853 357.265 112.654 355.3 110.443C352.107 107.063 350.449 103.868 350.327 100.858L348.485 25.0992L370.038 22.7951L372.248 94.1296C374.336 95.1741 376.608 95.6964 379.064 95.6964C382.626 95.6964 388.306 93.8224 396.104 90.0744L398.222 24.1775H419.499L418.118 114.037L402.828 115.88L398.867 101.134L379.617 114.774L360.735 114.037Z" fill="#E9AA09"/>
<path d="M432.261 61.1351L432.077 44.0849L451.696 42.0573L454.92 56.0661L469.012 40.5826H479.973L484.578 62.1489C484.578 62.1489 479.758 63.1934 470.118 65.2824C465.512 66.2655 460.753 67.3408 455.841 68.5082L454.551 131.548L433.735 133.391L432.261 61.1351Z" fill="#E9AA09"/>
<path d="M495.406 55.5438C495.406 47.3106 496.266 42.5488 497.986 41.2585C499.705 39.9682 501.639 38.6779 503.788 37.3876C505.937 36.0359 508.302 34.7149 510.881 33.4246C513.46 32.1343 516.131 30.9055 518.894 29.7381C521.718 28.5707 524.482 27.5261 527.183 26.6045C532.956 24.6384 537.254 23.6553 540.078 23.6553C542.965 23.6553 545.298 23.8089 547.079 24.1161C548.859 24.3619 550.487 24.792 551.96 25.4064C555.338 26.8196 557.241 28.8779 557.671 31.5813C559.697 44.4228 560.71 59.7219 560.71 77.4787V82.9164L516.591 83.4694V95.4506C521.381 96.618 527.091 97.6933 533.723 98.6763L549.566 101.257C553.618 101.871 557.763 102.578 562 103.377L556.566 123.56C539.679 120.918 521.749 116.648 502.775 110.75C498.415 109.337 496.174 106.787 496.051 103.1L495.406 55.5438ZM539.986 63.1012C539.986 57.3257 539.403 51.2429 538.236 44.8529C535.78 44.8529 533.815 44.9758 532.342 45.2215C530.868 45.4673 529.394 45.8052 527.92 46.2353C526.447 46.6654 524.942 47.157 523.407 47.7099C519.784 49.0002 517.389 50.1062 516.223 51.0278V67.6173L539.986 65.0367V63.1012Z" fill="#E9AA09"/>
<path d="M237.578 157.231L259.96 154.281L261.894 211.423L297.539 210.132L298.461 157.599L320.935 154.466L321.119 204.971L317.158 274.094L297.171 275.753L296.987 230.5L286.21 231.053L261.71 230.869L260.144 274.094L239.972 275.753L237.578 157.231Z" fill="#E9AA09"/>
<path d="M347.513 265.308C345.855 265.123 344.044 263.925 342.079 261.713C338.886 258.334 337.228 255.139 337.105 252.128L335.263 176.37L356.816 174.066L359.027 245.4C361.114 246.445 363.386 246.967 365.842 246.967C369.404 246.967 375.084 245.093 382.882 241.345L385.001 175.448H406.278L404.896 265.308L389.606 267.151L385.646 252.405L366.395 266.045L347.513 265.308Z" fill="#E9AA09"/>
<path d="M421.005 191.884L440.624 189.396L443.847 203.404L460.058 189.396H482.717C483.883 189.396 485.511 190.286 487.598 192.068C491.098 194.956 492.848 197.537 492.848 199.81L489.625 280.177L469.085 281.836L468.716 210.685C467.98 210.44 466.966 210.317 465.677 210.317C464.387 210.317 463.19 210.378 462.085 210.501C461.041 210.624 459.905 210.808 458.677 211.054C455.791 211.546 453.427 212.129 451.584 212.805L444.769 215.293L442.282 279.255L422.663 280.73L421.005 191.884Z" fill="#E9AA09"/>
<path d="M505.611 155.664L528.085 151.332V180.271L551.204 175.94L552.954 196.861L528.453 198.704L526.703 248.565C531.247 249.978 535.177 251.084 538.493 251.882C546.783 253.849 551.849 255.077 553.691 255.569L548.809 274.831C535.177 271.82 523.234 268.349 512.979 264.417C508.804 262.881 506.716 260.116 506.716 256.122L505.611 155.664Z" fill="#E9AA09"/>
<path d="M17.758 334.739V318.56H19.1688V334.739H17.758Z" fill="#E9AA09"/>
<path d="M74.5583 334.739V318.56H75.752L85.5407 332.611H85.0849V318.56H86.4957V334.739H85.302L75.4699 320.601H75.9691V334.739H74.5583Z" fill="#E9AA09"/>
<path d="M141.893 334.739V318.56H147.124C148.715 318.56 150.09 318.893 151.248 319.559C152.42 320.21 153.324 321.144 153.961 322.36C154.597 323.562 154.916 324.988 154.916 326.639C154.916 328.275 154.597 329.701 153.961 330.917C153.324 332.133 152.42 333.074 151.248 333.74C150.09 334.406 148.715 334.739 147.124 334.739H141.893ZM143.304 333.436H147.102C148.39 333.436 149.504 333.154 150.444 332.589C151.399 332.025 152.137 331.236 152.658 330.222C153.194 329.194 153.461 328 153.461 326.639C153.461 325.263 153.194 324.069 152.658 323.055C152.137 322.042 151.399 321.26 150.444 320.71C149.489 320.145 148.375 319.863 147.102 319.863H143.304V333.436Z" fill="#E9AA09"/>
<path d="M216.886 335C215.772 335 214.73 334.797 213.761 334.392C212.791 333.972 211.937 333.393 211.2 332.655C210.476 331.902 209.905 331.018 209.485 330.005C209.08 328.977 208.877 327.855 208.877 326.639C208.877 325.408 209.08 324.286 209.485 323.272C209.905 322.259 210.483 321.383 211.221 320.645C211.959 319.892 212.806 319.313 213.761 318.907C214.73 318.502 215.772 318.299 216.886 318.299C217.986 318.299 219.02 318.502 219.99 318.907C220.959 319.313 221.806 319.892 222.529 320.645C223.267 321.383 223.846 322.266 224.266 323.294C224.685 324.308 224.895 325.423 224.895 326.639C224.895 327.855 224.685 328.977 224.266 330.005C223.846 331.018 223.267 331.902 222.529 332.655C221.806 333.393 220.959 333.972 219.99 334.392C219.02 334.797 217.986 335 216.886 335ZM216.886 333.654C217.856 333.654 218.745 333.473 219.556 333.111C220.366 332.749 221.061 332.242 221.639 331.59C222.233 330.939 222.688 330.193 223.007 329.353C223.325 328.499 223.484 327.594 223.484 326.639C223.484 325.698 223.325 324.807 223.007 323.967C222.688 323.113 222.233 322.36 221.639 321.709C221.061 321.057 220.366 320.551 219.556 320.189C218.76 319.812 217.87 319.624 216.886 319.624C215.902 319.624 215.005 319.812 214.195 320.189C213.399 320.551 212.704 321.057 212.111 321.709C211.532 322.36 211.084 323.113 210.765 323.967C210.447 324.807 210.288 325.698 210.288 326.639C210.288 327.594 210.447 328.499 210.765 329.353C211.084 330.193 211.532 330.939 212.111 331.59C212.704 332.242 213.406 332.749 214.216 333.111C215.027 333.473 215.917 333.654 216.886 333.654Z" fill="#E9AA09"/>
<path d="M279.805 334.739V318.56H280.999L290.787 332.611H290.332V318.56H291.742V334.739H290.549L280.717 320.601H281.216V334.739H279.805Z" fill="#E9AA09"/>
<path d="M347.14 334.739V318.56H357.341V319.863H348.55V325.965H356.907V327.269H348.55V333.436H357.341V334.739H347.14Z" fill="#E9AA09"/>
<path d="M417.035 335C416.008 335 415.081 334.805 414.257 334.414C413.446 334.023 412.766 333.509 412.216 332.872C411.681 332.235 411.298 331.547 411.066 330.809L412.325 330.352C412.73 331.453 413.331 332.293 414.126 332.872C414.937 333.451 415.899 333.74 417.013 333.74C417.751 333.74 418.395 333.617 418.945 333.371C419.509 333.125 419.95 332.778 420.269 332.329C420.587 331.88 420.746 331.351 420.746 330.743C420.746 329.904 420.508 329.252 420.03 328.789C419.567 328.325 418.959 327.992 418.207 327.79L415.255 326.921C414.054 326.574 413.164 326.016 412.585 325.249C412.021 324.467 411.739 323.584 411.739 322.599C411.739 321.745 411.942 320.999 412.347 320.362C412.766 319.711 413.331 319.204 414.04 318.842C414.749 318.48 415.552 318.299 416.449 318.299C417.389 318.299 418.229 318.48 418.967 318.842C419.719 319.19 420.348 319.653 420.855 320.232C421.376 320.797 421.745 321.426 421.962 322.121L420.725 322.578C420.363 321.578 419.806 320.826 419.053 320.319C418.301 319.798 417.44 319.537 416.471 319.537C415.834 319.537 415.262 319.66 414.756 319.906C414.249 320.152 413.852 320.5 413.562 320.949C413.273 321.398 413.128 321.926 413.128 322.534C413.128 323.272 413.338 323.902 413.757 324.424C414.177 324.945 414.879 325.357 415.863 325.661L418.511 326.443C419.668 326.791 420.558 327.326 421.18 328.05C421.817 328.76 422.135 329.636 422.135 330.678C422.135 331.532 421.918 332.285 421.484 332.937C421.05 333.574 420.442 334.081 419.661 334.457C418.894 334.819 418.019 335 417.035 335Z" fill="#E9AA09"/>
<path d="M477.061 334.739V318.56H478.472V334.739H477.061Z" fill="#E9AA09"/>
<path d="M532.19 334.739L538.137 318.56H539.591L545.538 334.739H544.019L542.543 330.613H535.185L533.688 334.739H532.19ZM535.641 329.31H542.066L538.593 319.646H539.114L535.641 329.31Z" fill="#E9AA09"/>
<path d="M174.61 237.48L164.154 205.487L84.9989 217.145L160.477 153.275L186.494 232.882C191.778 232.463 197.033 233.939 201.3 237.042C205.566 240.144 208.561 244.666 209.736 249.782C210.912 254.898 210.19 260.266 207.703 264.909C205.216 269.551 201.129 273.157 196.188 275.068C191.248 276.98 185.783 277.07 180.79 275.321C175.798 273.573 171.611 270.103 168.994 265.545C166.378 260.986 165.505 255.644 166.536 250.492C167.567 245.339 170.432 240.721 174.61 237.48ZM153.981 174.403L122.236 201.389L160.045 193.062L153.981 174.403ZM189.318 263.876C191.158 263.643 192.889 262.874 194.29 261.667C195.692 260.46 196.702 258.87 197.191 257.096C197.681 255.323 197.629 253.447 197.041 251.706C196.454 249.965 195.357 248.437 193.891 247.316C192.425 246.195 190.654 245.531 188.804 245.408C186.954 245.286 185.107 245.71 183.498 246.627C181.888 247.545 180.589 248.914 179.764 250.561C178.938 252.209 178.625 254.06 178.862 255.882C179.02 257.092 179.417 258.258 180.031 259.315C180.645 260.371 181.463 261.297 182.439 262.039C183.416 262.781 184.53 263.324 185.72 263.638C186.91 263.952 188.151 264.031 189.372 263.869L189.318 263.876Z" fill="#E9AA09"/>
</svg>
